<svg width="20" height="20" viewBox="0 0 20 20" fill="none" xmlns="http://www.w3.org/2000/svg">
<path d="M15.8333 8.31667H14.5333C14.8083 7.85833 14.975 7.33333 14.9917 6.76667C15.025 5.90833 14.6333 5.10833 14.025 4.50833C12.7417 3.225 11.7417 3.20833 10.8417 3.43333C10.1667 2.85833 9.3 2.5 8.33333 2.5C6.75833 2.5 5.40833 3.425 4.775 4.75833C3.45833 5.2 2.5 6.43333 2.5 7.9C2.5 9.45 3.56667 10.7417 5 11.1167V16.65C5 17.5667 5.75 18.3167 6.66667 18.3167H12.5C13.4167 18.3167 14.1667 17.5667 14.1667 16.65H15.8333C16.75 16.65 17.5 15.9 17.5 14.9833V9.98333C17.5 9.06667 16.75 8.31667 15.8333 8.31667ZM5.83333 9.56667C4.91667 9.56667 4.16667 8.81667 4.16667 7.9C4.16667 7.19167 4.625 6.56667 5.30833 6.33333L5.975 6.10833L6.275 5.475C6.66667 4.66667 7.45 4.16667 8.33333 4.16667C8.99167 4.16667 9.49167 4.45833 9.78333 4.70833L10.4333 5.25C10.4333 5.25 10.9667 4.98333 11.6583 4.98333C12.575 4.98333 13.325 5.73333 13.325 6.65H10.825C8.05833 6.65 7.625 9.56667 5.83333 9.56667ZM15.8333 14.9833H14.1667V9.98333H15.8333V14.9833Z" fill="#FFBE1A"/>
<path fill-rule="evenodd" clip-rule="evenodd" d="M14.5333 8.31667C14.8083 7.85833 14.975 7.33333 14.9917 6.76667C15.025 5.90833 14.6333 5.10833 14.025 4.50833C12.7417 3.225 11.7417 3.20833 10.8417 3.43333C10.1667 2.85833 9.3 2.5 8.33333 2.5C6.75833 2.5 5.40833 3.425 4.775 4.75833C3.45833 5.2 2.5 6.43333 2.5 7.9C2.5 9.45 3.56667 10.7417 5 11.1167C5 11.1167 6.27484 11.1043 7.5 10.4167C8.13538 10.0601 8.75 9.58333 9.58333 8.75C10.4167 7.91667 14.5333 8.31667 14.5333 8.31667ZM4.16667 7.9C4.16667 8.81667 4.91667 9.56667 5.83333 9.56667C7.625 9.56667 8.05833 6.65 10.825 6.65H13.325C13.325 5.73333 12.575 4.98333 11.6583 4.98333C10.9667 4.98333 10.4333 5.25 10.4333 5.25L9.78333 4.70833C9.49167 4.45833 8.99167 4.16667 8.33333 4.16667C7.45 4.16667 6.66667 4.66667 6.275 5.475L5.975 6.10833L5.30833 6.33333C4.625 6.56667 4.16667 7.19167 4.16667 7.9Z" fill="#EBEBEB"/>
<path d="M5.83333 9.56667C4.91667 9.56667 4.16667 8.81667 4.16667 7.9C4.16667 7.19167 4.625 6.56667 5.30833 6.33333L5.975 6.10833L6.275 5.475C6.66667 4.66667 7.45 4.16667 8.33333 4.16667C8.99167 4.16667 9.49167 4.45833 9.78333 4.70833L10.4333 5.25C10.4333 5.25 10.9667 4.98333 11.6583 4.98333C12.575 4.98333 13.325 5.73333 13.325 6.65H10.825C8.05833 6.65 7.625 9.56667 5.83333 9.56667Z" fill="white"/>
</svg>
